<?xml version="1.0" encoding="utf-8"?><svg width="251" height="155" viewBox="0 0 251 155" xmlns="http://www.w3.org/2000/svg" xmlns:xlink="http://www.w3.org/1999/xlink"><svg id="Slices" viewBox="0 0 50.2 47.3" width="50.2" height="47.3" x="200" xmlns="http://www.w3.org/2000/svg"><style>.ast0{fill:#ed1c24}.ast1{fill:#2e3192}.ast2{fill:none}.ast3{enable-background:new}.ast4{fill:#f1f2f2}</style><path class="ast0" d="M16.8 4.5C12 6.4-2.3 12.9 1.1 21c1.9 4.4 7.6 2 9.1 3.8 1.7 2 1.4 5 .6 7.5-.8 2.5-2.2 4.9-2.1 7.5.1 2.1 1.1 4.2 2.8 5.5s3.9 1.8 6 1.4c3.6-.7 6.1-2.8 8.9-5.2 3.1-2.6 10.9-2.6 14.1-4.4 3.9-2.2.7-7.2 4.5-9.4 3.4-2 5.1-6.3 4.8-10.2s-2.5-7.6-5.2-10.4c-1.8-1.8-3.9-3.4-6.3-4.1-3.3-.7-13.4-1.5-21.5 1.5z"/><path class="ast1" d="M6.1 6.8c-1.3 4.5 3.4 6.8 1.5 10.6-1.2 2.5-3 4.7-4.1 7.3-.8 1.9-1.3 3.9-1.4 5.9-.1 1.3 0 2.7.6 4 1.4 3 5.2 3.9 8.5 3.6 3.3-.3 6.4-1.6 9.7-1.7 4.3-.1 8.4 1.7 12.1 3.9 2.2 1.3 4.5 2.7 7.1 2.5 2.8-.2 5.1-2.5 6.5-5s2.3-5.3 2.6-8.1c.4-2.7.3-5.4-.4-8-.8-2.9-2.3-5.5-3.9-8-2-3.1-4.1-6.1-6.8-8.5S32 1.1 28.4.8c-3.2-.3-5.7 1.5-8.8 2.4-2.4.6-2.9-1.6-5.8-1.7-3.5-.4-7 2.8-7.7 5.3z"/><path class="ast2" d="M12.5 17.6h27.9v10.3H12.5z"/><g class="ast3"><path class="ast4" d="M14.6 23.1v-2h.7v.5c.3.6.8.9 1.3.9.3 0 .5-.1.7-.2s.3-.4.3-.6c0-.3-.1-.4-.2-.6s-.4-.2-.9-.3c-.5-.1-.8-.3-1.1-.4s-.4-.3-.6-.5-.2-.5-.2-.8c0-.5.2-.8.5-1.1s.7-.4 1.1-.4c.4 0 .8.1 1.2.4v-.4h.6v1.6h-.7v-.4c-.3-.4-.7-.6-1.2-.6-.3 0-.5.1-.7.2s-.2.3-.2.5c0 .1 0 .3.1.4s.2.2.3.2.4.1.7.2c.5.1.8.2 1 .3.2.1.4.3.6.5.2.3.2.5.2.9 0 .5-.2.8-.5 1.1-.3.3-.7.5-1.2.5s-.9-.2-1.3-.5v.4h-.5zM20.2 22.4v-4.1h-.7v-.7h1.4v4.8h.6v.7h-2v-.7h.7zM23.3 22.4v-2.5h-.6v-.7H24v3.1h.6v.7h-1.9v-.7h.6zm-.1-4.4c0-.1 0-.2.1-.3s.2-.1.3-.1c.1 0 .2 0 .3.1s.1.2.1.3 0 .2-.1.3-.2.1-.3.1c-.1 0-.2 0-.3-.1s-.1-.2-.1-.3zM29.5 19.3v1.4h-.7c0-.3-.1-.5-.3-.6-.2-.1-.4-.2-.7-.2-.3 0-.6.1-.8.4-.2.2-.3.5-.3.9s.1.7.3.9c.2.3.5.4.9.4.5 0 .9-.2 1.1-.7l.6.3c-.3.8-.9 1.1-1.8 1.1-.6 0-1.1-.2-1.4-.6s-.5-.9-.5-1.4c0-.6.2-1 .6-1.4s.8-.6 1.3-.6c.4 0 .8.1 1.1.4v-.3h.6zM34.9 21.4h-3.2c0 .3.2.6.4.8.2.2.5.3.9.3.5 0 .9-.2 1.2-.6l.7.3c-.2.3-.5.6-.8.7-.3.2-.7.2-1.1.2-.6 0-1.1-.2-1.5-.5s-.6-.8-.6-1.5c0-.6.2-1.1.6-1.4.4-.4.9-.6 1.4-.6.5 0 1 .2 1.4.5.3.5.6 1 .6 1.8zm-.8-.6c-.1-.3-.2-.5-.4-.7-.2-.2-.5-.3-.8-.3-.3 0-.6.1-.8.3s-.3.4-.4.8h2.4zM36.3 23.1v-1.3h.7v.1c0 .2.1.3.3.4s.4.2.6.2c.2 0 .4 0 .6-.1.1-.1.2-.2.2-.3 0-.1-.1-.2-.2-.3-.1-.1-.4-.1-.7-.2-.5-.1-.9-.2-1.1-.4-.2-.2-.3-.5-.3-.8 0-.3.1-.6.4-.8.2-.2.6-.3 1-.3s.7.1.9.2v-.2h.7v1.3h-.7v-.2c-.2-.3-.5-.5-.9-.5-.2 0-.4 0-.5.1-.2 0-.3.2-.3.3 0 .1.1.2.2.3.1.1.4.1.7.2.4.1.6.1.8.2.2.1.3.2.5.4.1.2.2.4.2.6 0 .4-.1.6-.4.8s-.6.3-1 .3-.7-.1-1-.3v.2h-.7z"/></g></svg><svg id="closeconnections_white" viewBox="0 0 35.4 9.5" width="35.4" height="9.5" x="200" y="143.3" xmlns="http://www.w3.org/2000/svg"><style>.bst0{fill:#fff}</style><path class="bst0" d="M12.5 2.9c-.1.5-.4 1.2-1.4 1.2-1.5 0-1.6-1.5-1.6-1.8 0-1.1.5-1.9 1.6-1.9s1.4.7 1.4 1.1h-.3c0-.5-.4-.9-1.1-.9-.9 0-1.3.7-1.3 1.7 0 .9.5 1.6 1.3 1.6s1.1-.6 1.2-1h.2zM15.4 4h-2.1V.5h.2v3.3h1.9V4zM16.9.4c1 0 1.6.7 1.6 1.9s-.6 1.9-1.6 1.9-1.6-.7-1.6-1.9.5-1.9 1.6-1.9zm0 3.5c.7 0 1.4-.4 1.4-1.6 0-1.2-.7-1.6-1.4-1.6s-1.4.4-1.4 1.6c0 1.2.7 1.6 1.4 1.6zM19.3 2.9c0 .4.3 1 1.1 1 .9 0 1-.6 1-.8 0-.5-.5-.7-.8-.7-.2 0-.3-.1-.4-.1-.4-.1-1-.2-1-.9 0-.4.2-1 1.3-1 .9 0 1.2.6 1.2 1h-.2c0-.2-.2-.8-1-.8-.6 0-1 .3-1 .8s.4.6 1 .7c.4.1 1.3.2 1.3 1 0 .4-.2 1-1.3 1s-1.4-.7-1.4-1.2h.2zM24.6 2.1v.2h-1.9v1.5h2.1V4h-2.4V.5h2.3v.2h-2.1v1.4h2zM3.2 7.9c-.1.5-.4 1.2-1.5 1.2C.2 9.1.1 7.6.1 7.3c0-1.1.5-1.9 1.6-1.9s1.4.7 1.4 1.1h-.2c0-.5-.4-.9-1.1-.9-.9 0-1.3.7-1.3 1.7 0 .9.5 1.6 1.3 1.6s1.1-.6 1.2-1h.2zM5.4 5.4c1 0 1.6.7 1.6 1.9s-.6 1.9-1.6 1.9-1.6-.8-1.6-2 .5-1.8 1.6-1.8zm0 3.5c.7 0 1.4-.4 1.4-1.6 0-1.2-.7-1.6-1.4-1.6S4 6 4 7.2c0 1.3.7 1.7 1.4 1.7zM8 9h-.2V5.5h.3l2.1 3.2V5.5h.2V9h-.3L8 5.8V9zM11.6 9h-.2V5.5h.3l2.1 3.2V5.5h.2V9h-.3l-2.1-3.2V9zM17.1 7.1v.2h-1.9v1.5h2.1V9h-2.4V5.5h2.3v.2h-2.1v1.4h2zM20.7 7.9c-.1.5-.4 1.2-1.4 1.2-1.5 0-1.6-1.5-1.6-1.8 0-1.1.5-1.9 1.6-1.9s1.4.7 1.4 1.1h-.3c0-.5-.4-.9-1.1-.9-.9 0-1.3.7-1.3 1.7 0 .9.5 1.6 1.3 1.6s1.1-.6 1.2-1h.2zM21 5.7v-.2h2.6v.2h-1.2V9h-.2V5.7H21zM24.4 5.5V9h-.2V5.5h.2zM26.8 5.4c1 0 1.6.7 1.6 1.9s-.6 1.9-1.6 1.9-1.6-.7-1.6-1.9.5-1.9 1.6-1.9zm0 3.5c.7 0 1.4-.4 1.4-1.6 0-1.2-.7-1.6-1.4-1.6s-1.4.4-1.4 1.6c0 1.2.7 1.6 1.4 1.6zM29.4 9h-.2V5.5h.3l2.1 3.2V5.5h.2V9h-.3l-2.1-3.2V9zM32.8 7.9c0 .4.3 1 1.1 1 .9 0 1-.6 1-.8 0-.5-.5-.7-.8-.7-.2 0-.3-.1-.4-.1-.4-.1-1-.2-1-.9 0-.4.2-1 1.3-1 .9 0 1.2.6 1.2 1H35c0-.2-.2-.8-1-.8-.6 0-1 .3-1 .8s.4.6 1 .7c.4.1 1.3.2 1.3 1 0 .4-.2 1-1.3 1s-1.4-.7-1.4-1.2h.2z"/></svg><svg class="ct-sociallinks__svg" width="48" height="48" viewBox="0 0 48 48" id="facebook" x="200" y="47.3" xmlns="http://www.w3.org/2000/svg"><desc>Facebook</desc><path d="M47.761 24c0 13.121-10.638 23.76-23.758 23.76C10.877 47.76.239 37.121.239 24 .239 10.876 10.877.24 24.003.24 37.123.24 47.761 10.876 47.761 24M20.033 38.85H26.2V24.01h4.163l.539-5.242H26.2v-3.083c0-1.156.769-1.427 1.308-1.427h3.318v-5.09l-4.568-.018c-5.072 0-6.225 3.796-6.225 6.224v3.394H17.1v5.242h2.933v14.84z"/></svg><svg class="dt-sociallinks__svg" width="48" height="48" viewBox="0 0 30 30" id="instagram" x="200" y="95.3" xmlns="http://www.w3.org/2000/svg"><desc>Instagram</desc><path d="M15 11.014a3.986 3.986 0 1 0 .001 7.971A3.986 3.986 0 0 0 15 11.014zm0 6.592A2.604 2.604 0 0 1 12.393 15 2.604 2.604 0 0 1 15 12.394 2.614 2.614 0 0 1 17.607 15 2.604 2.604 0 0 1 15 17.606zM19.385 9.556a.915.915 0 0 0-.92.921c0 .512.407.919.92.919a.914.914 0 0 0 .921-.919.916.916 0 0 0-.921-.921z"/><path d="M15.002.15C6.798.15.149 6.797.149 15c0 8.201 6.649 14.85 14.853 14.85 8.199 0 14.85-6.648 14.85-14.85 0-8.203-6.651-14.85-14.85-14.85zm7.664 18.115c0 2.423-1.979 4.401-4.416 4.401h-6.5c-2.438 0-4.417-1.979-4.417-4.386v-6.546c0-2.422 1.978-4.4 4.417-4.4h6.5c2.438 0 4.416 1.978 4.416 4.4v6.531z"/></svg><svg version="1" id="logo" width="200" height="100" viewBox="0 0 200 100" xmlns="http://www.w3.org/2000/svg"><style>.est0{fill:#fff}</style><path class="est0" d="M46.7 53.7L53.1 35l6.4 18.7h4l9.1-26.3h-4.8l-6.2 19.4-6.5-19.5h-3.8l-6.5 19.5-6.2-19.4h-5l9.1 26.3zM78.9 27.4L67.4 53.7h4.7l2.7-6.3h12.4l2.6 6.3h4.9L83.2 27.4h-4.3zm-2.4 16L81 32.9l4.5 10.4h-9zM100.9 46.2L105 42l8.9 11.7h5.6l-11.4-14.9L119 27.6h-5.7l-12.4 13.1V27.6h-4.6v26.1h4.6zM134.6 49.6h-8.8v-7h12.1l1-2.3v-1.8h-13.1v-6.8h14.8v-4.1h-19.3v26.1h11.4zM148.6 42.7V32.2l-1.9 4.4v6.2c0 7.3 4.4 11.3 10.7 11.3 6.3 0 10.7-4 10.7-11.5v-15h-1.9v15.3c0 6.3-3.4 9.5-8.7 9.5-5.6 0-8.9-3.6-8.9-9.7zM180.8 27.6h-9.5v26.1h1.9V44h7.1c5.4 0 10.2-2.8 10.2-8.3 0-5.1-4-8.1-9.7-8.1zm-.4 14.6h-7.2V29.4h7.4c4.7 0 7.9 2.2 7.9 6.3.1 4-3.2 6.5-8.1 6.5z"/><path class="est0" d="M55.7 57.6l6.2 13.7H47.1l6.3-13.7h-2.1L40.5 81 27.8 65.4 40.1 53h-2.9L19.4 71.4V53h-2.1v28h2.1v-7.1l7-7L37.9 81H42.7l3.5-7.8h16.6l3.5 7.8h2.3L57.8 57.6zM90.3 69.4c0 6.8-3.6 10.2-9.3 10.2-5.9 0-9.5-3.8-9.5-10.4V57.6h-2.1v11.8c0 7.8 4.8 12.1 11.5 12.1 6.8 0 11.5-4.3 11.5-12.3V57.6h-2.1v11.8zM96.4 57.6h2V81h-2zM117.6 77.4L102 57.6h-2.5L118.1 81h1.5V57.6h-2zM169.3 57.6h-.1c0 .1.1.1.1 0zM162.2 66c-6.6-1.4-8.2-3.2-8.2-6.1 0-.8.2-1.6.6-2.3h-2.2c-.3.7-.4 1.5-.4 2.4 0 4.3 2.7 6.6 9.4 8 6.4 1.3 7.9 3 7.9 6 0 3.3-2.9 5.6-7.1 5.6-4.1 0-7-1.3-10-4.2l-1.4 1.6c3.4 3 6.8 4.5 11.3 4.5 5.4 0 9.3-3.1 9.3-7.6 0-4.3-2.7-6.6-9.2-7.9zM122.3 81h2.2l2.7-5.9h-2.1zM145.4 75.1l2.7 5.9h2.3l-2.8-5.9zM146.5 72.7l-9.2-19.9 16.8-38.2H153l-26.9 58.1.5.5H146l.5-.5zm-17.6-1.4l7.4-16.2 7.4 16.2h-14.8z"/></svg><svg id="miiissy_white" viewBox="0 0 60 43" width="60" height="43" x="73.7" y="100" xmlns="http://www.w3.org/2000/svg"><style>.fst0{fill:#fff}.fst1{fill:none;stroke:#fff;stroke-width:2.1514;stroke-miterlimit:10}</style><path class="fst0" d="M13.4 31c-.1-2-.2-4.5-.2-6.3h-.1c-.5 1.7-1.1 3.5-1.8 5.5l-2.6 7H7.3L5 30.4c-.7-2-1.3-3.9-1.7-5.6 0 1.8-.2 4.2-.3 6.4l-.4 6.2H.8l1-14.5h2.4l2.5 7c.6 1.8 1.1 3.4 1.5 4.9h.1c.4-1.5.9-3.1 1.5-4.9l2.6-7h2.4l.9 14.5h-1.8l-.5-6.4zM33.5 35.5c.6.4 1.6.8 2.5.8 1.4 0 2-.7 2-1.5 0-.9-.5-1.4-1.9-1.9-1.9-.7-2.8-1.7-2.8-2.9 0-1.7 1.4-3.1 3.6-3.1 1.1 0 2 .3 2.6.6l-.5 1.3c-.4-.3-1.2-.6-2.1-.6-1.1 0-1.7.6-1.7 1.4 0 .9.6 1.2 2 1.8 1.8.7 2.7 1.6 2.7 3.1 0 1.8-1.4 3.1-3.9 3.1-1.1 0-2.2-.3-2.9-.7l.4-1.4zM42 35.5c.6.4 1.6.8 2.5.8 1.4 0 2-.7 2-1.5 0-.9-.5-1.4-1.9-1.9-1.9-.7-2.8-1.7-2.8-2.9 0-1.7 1.4-3.1 3.6-3.1 1.1 0 2 .3 2.6.6l-.5 1.4c-.4-.3-1.2-.6-2.1-.6-1.1 0-1.7.6-1.7 1.4 0 .9.6 1.2 2 1.8 1.8.7 2.7 1.6 2.7 3.1 0 1.8-1.4 3.1-3.9 3.1-1.1 0-2.2-.3-2.9-.7l.4-1.5zM51.5 27l2.3 6.2c.2.7.5 1.5.7 2.1.2-.6.4-1.4.7-2.2l2.1-6.1h2l-2.8 7.4c-1.4 3.6-2.3 5.4-3.6 6.5-.9.8-1.9 1.1-2.3 1.2l-.6-1.5c.5-.2 1.1-.5 1.7-.9.5-.4 1.2-1.1 1.6-2.1.1-.2.2-.3.2-.5s0-.3-.1-.5l-4-9.6h2.1z"/><path class="fst1" d="M19.5 37.5V6M24.6 37.5V6M29.7 37.4V6"/><circle class="fst0" cx="19.6" cy="2.4" r="1.2"/><circle class="fst0" cx="24.6" cy="2.4" r="1.2"/><circle class="fst0" cx="29.8" cy="2.4" r="1.2"/></svg><svg id="vortexpost_white" viewBox="0 0 73.7 54.3" width="73.7" height="54.3" y="100" xmlns="http://www.w3.org/2000/svg"><style>.gst0{fill:#fff}.gst1{font-family:'Calibri'}.gst2{font-size:11px}.gst3{fill:none;stroke:#fff;stroke-width:.8816;stroke-linecap:round;stroke-linejoin:round}</style><title>Artboard 1</title><text transform="translate(2.25 53.083)" class="gst0 gst1 gst2">VORTEX POST</text><path id="gRectangle-1-Copy-2_1_" class="gst3" d="M41 15.9V35H22.4"/><path id="gPath-3" class="gst3" d="M11 26.3l30-10.4-18.7 19L11 26.3z"/><path class="gst3" d="M20.2 22.6l-2.4-8.4 16.5 1s6.7.6 6.8.6V.8l-6.8 14.5M41.8 16c.9 0 17.9 1.3 17.9 1.3l-18.3 8.2"/></svg></svg>