<?xml version="1.0" encoding="utf-8"?>
<!-- Generator: Adobe Illustrator 20.0.0, SVG Export Plug-In . SVG Version: 6.00 Build 0)  -->
<svg version="1.1" id="Layer_1" xmlns="http://www.w3.org/2000/svg" xmlns:xlink="http://www.w3.org/1999/xlink" x="0px" y="0px"
	 viewBox="0 0 35.4 9.5" style="enable-background:new 0 0 35.4 9.5;" xml:space="preserve">
<style type="text/css">
	.st0{fill:#FFFFFF;}
</style>
<g>
	<path class="st0" d="M12.5,2.9c-0.1,0.5-0.4,1.2-1.4,1.2c-1.5,0-1.6-1.5-1.6-1.8c0-1.1,0.5-1.9,1.6-1.9c1.1,0,1.4,0.7,1.4,1.1h-0.3
		c0-0.5-0.4-0.9-1.1-0.9c-0.9,0-1.3,0.7-1.3,1.7c0,0.9,0.5,1.6,1.3,1.6c0.8,0,1.1-0.6,1.2-1H12.5z"/>
	<path class="st0" d="M15.4,4h-2.1V0.5h0.2v3.3h1.9V4z"/>
	<path class="st0" d="M16.9,0.4c1,0,1.6,0.7,1.6,1.9c0,1.2-0.6,1.9-1.6,1.9c-1,0-1.6-0.7-1.6-1.9S15.8,0.4,16.9,0.4z M16.9,3.9
		c0.7,0,1.4-0.4,1.4-1.6c0-1.2-0.7-1.6-1.4-1.6c-0.7,0-1.4,0.4-1.4,1.6C15.5,3.5,16.2,3.9,16.9,3.9z"/>
	<path class="st0" d="M19.3,2.9c0,0.4,0.3,1,1.1,1c0.9,0,1-0.6,1-0.8c0-0.5-0.5-0.7-0.8-0.7c-0.2,0-0.3-0.1-0.4-0.1
		c-0.4-0.1-1-0.2-1-0.9c0-0.4,0.2-1,1.3-1c0.9,0,1.2,0.6,1.2,1h-0.2c0-0.2-0.2-0.8-1-0.8c-0.6,0-1,0.3-1,0.8c0,0.5,0.4,0.6,1,0.7
		c0.4,0.1,1.3,0.2,1.3,1c0,0.4-0.2,1-1.3,1c-1.1,0-1.4-0.7-1.4-1.2H19.3z"/>
	<path class="st0" d="M24.6,2.1v0.2h-1.9v1.5h2.1V4h-2.4V0.5h2.3v0.2h-2.1v1.4H24.6z"/>
	<path class="st0" d="M3.2,7.9C3.1,8.4,2.8,9.1,1.7,9.1c-1.5,0-1.6-1.5-1.6-1.8c0-1.1,0.5-1.9,1.6-1.9c1.1,0,1.4,0.7,1.4,1.1H2.9
		c0-0.5-0.4-0.9-1.1-0.9c-0.9,0-1.3,0.7-1.3,1.7c0,0.9,0.5,1.6,1.3,1.6c0.8,0,1.1-0.6,1.2-1H3.2z"/>
	<path class="st0" d="M5.4,5.4c1,0,1.6,0.7,1.6,1.9c0,1.2-0.6,1.9-1.6,1.9S3.8,8.4,3.8,7.2S4.3,5.4,5.4,5.4z M5.4,8.9
		c0.7,0,1.4-0.4,1.4-1.6c0-1.2-0.7-1.6-1.4-1.6S4,6,4,7.2C4,8.5,4.7,8.9,5.4,8.9z"/>
	<path class="st0" d="M8,9H7.8V5.5h0.3l2.1,3.2V5.5h0.2V9h-0.3L8,5.8V9z"/>
	<path class="st0" d="M11.6,9h-0.2V5.5h0.3l2.1,3.2V5.5H14V9h-0.3l-2.1-3.2V9z"/>
	<path class="st0" d="M17.1,7.1v0.2h-1.9v1.5h2.1V9h-2.4V5.5h2.3v0.2h-2.1v1.4H17.1z"/>
	<path class="st0" d="M20.7,7.9c-0.1,0.5-0.4,1.2-1.4,1.2c-1.5,0-1.6-1.5-1.6-1.8c0-1.1,0.5-1.9,1.6-1.9c1.1,0,1.4,0.7,1.4,1.1h-0.3
		c0-0.5-0.4-0.9-1.1-0.9c-0.9,0-1.3,0.7-1.3,1.7c0,0.9,0.5,1.6,1.3,1.6c0.8,0,1.1-0.6,1.2-1H20.7z"/>
	<path class="st0" d="M21,5.7V5.5h2.6v0.2h-1.2V9h-0.2V5.7H21z"/>
	<path class="st0" d="M24.4,5.5V9h-0.2V5.5H24.4z"/>
	<path class="st0" d="M26.8,5.4c1,0,1.6,0.7,1.6,1.9c0,1.2-0.6,1.9-1.6,1.9c-1,0-1.6-0.7-1.6-1.9S25.7,5.4,26.8,5.4z M26.8,8.9
		c0.7,0,1.4-0.4,1.4-1.6c0-1.2-0.7-1.6-1.4-1.6c-0.7,0-1.4,0.4-1.4,1.6C25.4,8.5,26.1,8.9,26.8,8.9z"/>
	<path class="st0" d="M29.4,9h-0.2V5.5h0.3l2.1,3.2V5.5h0.2V9h-0.3l-2.1-3.2V9z"/>
	<path class="st0" d="M32.8,7.9c0,0.4,0.3,1,1.1,1c0.9,0,1-0.6,1-0.8c0-0.5-0.5-0.7-0.8-0.7c-0.2,0-0.3-0.1-0.4-0.1
		c-0.4-0.1-1-0.2-1-0.9c0-0.4,0.2-1,1.3-1c0.9,0,1.2,0.6,1.2,1h-0.2c0-0.2-0.2-0.8-1-0.8c-0.6,0-1,0.3-1,0.8c0,0.5,0.4,0.6,1,0.7
		c0.4,0.1,1.3,0.2,1.3,1c0,0.4-0.2,1-1.3,1c-1.1,0-1.4-0.7-1.4-1.2H32.8z"/>
</g>
</svg>
