<?xml version="1.0" encoding="utf-8"?>
<!-- Generator: Adobe Illustrator 20.1.0, SVG Export Plug-In . SVG Version: 6.00 Build 0)  -->
<svg version="1.0" id="Layer_1" xmlns="http://www.w3.org/2000/svg" xmlns:xlink="http://www.w3.org/1999/xlink" x="0px" y="0px"
	 width="200px" height="100px" viewBox="0 0 200 100" style="enable-background:new 0 0 200 100;" xml:space="preserve">
<style type="text/css">
	.st0{fill:#FFFFFF;}
</style>
<g>
	<polygon class="st0" points="46.7,53.7 53.1,35 59.5,53.7 63.5,53.7 72.6,27.4 67.8,27.4 61.6,46.8 55.1,27.3 51.3,27.3 44.8,46.8 
		38.6,27.4 33.6,27.4 42.7,53.7 	"/>
	<path class="st0" d="M78.9,27.4L67.4,53.7h4.7l2.7-6.3h12.4l2.6,6.3h4.9L83.2,27.4H78.9z M76.5,43.4L81,32.9l4.5,10.4H76.5z"/>
	<polygon class="st0" points="100.9,46.2 105,42 113.9,53.7 119.5,53.7 108.1,38.8 119,27.6 113.3,27.6 100.9,40.7 100.9,27.6 
		96.3,27.6 96.3,53.7 100.9,53.7 	"/>
	<polygon class="st0" points="134.6,49.6 125.8,49.6 125.8,42.6 137.9,42.6 138.9,40.3 138.9,38.5 125.8,38.5 125.8,31.7 
		140.6,31.7 140.6,27.6 121.3,27.6 121.3,53.7 132.7,53.7 	"/>
	<path class="st0" d="M148.6,42.7V32.2l-1.9,4.4v6.2c0,7.3,4.4,11.3,10.7,11.3c6.3,0,10.7-4,10.7-11.5v-15h-1.9v15.3
		c0,6.3-3.4,9.5-8.7,9.5C151.9,52.4,148.6,48.8,148.6,42.7z"/>
	<path class="st0" d="M180.8,27.6h-9.5v26.1h1.9V44h7.1c5.4,0,10.2-2.8,10.2-8.3C190.5,30.6,186.5,27.6,180.8,27.6z M180.4,42.2
		h-7.2V29.4h7.4c4.7,0,7.9,2.2,7.9,6.3C188.6,39.7,185.3,42.2,180.4,42.2z"/>
	<polygon class="st0" points="55.7,57.6 61.9,71.3 47.1,71.3 53.4,57.6 51.3,57.6 40.5,81 27.8,65.4 40.1,53 37.2,53 19.4,71.4 
		19.4,53 17.3,53 17.3,81 19.4,81 19.4,73.9 26.4,66.9 37.9,81 40.5,81 40.6,81 42.7,81 46.2,73.2 62.8,73.2 66.3,81 68.6,81 
		57.8,57.6 	"/>
	<path class="st0" d="M90.3,69.4c0,6.8-3.6,10.2-9.3,10.2c-5.9,0-9.5-3.8-9.5-10.4V57.6h-2.1v11.8c0,7.8,4.8,12.1,11.5,12.1
		c6.8,0,11.5-4.3,11.5-12.3V57.6h-2.1V69.4z"/>
	<rect x="96.4" y="57.6" class="st0" width="2" height="23.4"/>
	<polygon class="st0" points="117.6,77.4 102,57.6 99.5,57.6 118.1,81 119.6,81 119.6,57.6 117.6,57.6 	"/>
	<path class="st0" d="M169.3,57.6h-0.1C169.2,57.7,169.3,57.7,169.3,57.6L169.3,57.6z"/>
	<path class="st0" d="M162.2,66c-6.6-1.4-8.2-3.2-8.2-6.1c0-0.8,0.2-1.6,0.6-2.3h-2.2c-0.3,0.7-0.4,1.5-0.4,2.4c0,4.3,2.7,6.6,9.4,8
		c6.4,1.3,7.9,3,7.9,6c0,3.3-2.9,5.6-7.1,5.6c-4.1,0-7-1.3-10-4.2l-1.4,1.6c3.4,3,6.8,4.5,11.3,4.5c5.4,0,9.3-3.1,9.3-7.6
		C171.4,69.6,168.7,67.3,162.2,66z"/>
	<polygon class="st0" points="122.3,81 124.5,81 127.2,75.1 125.1,75.1 	"/>
	<polygon class="st0" points="145.4,75.1 148.1,81 150.4,81 147.6,75.1 	"/>
	<path class="st0" d="M146.5,72.7l-9.2-19.9l16.8-38.2H153l-26.9,58.1l0.5,0.5h1.4h16.5h1.5L146.5,72.7z M128.9,71.3l7.4-16.2
		l7.4,16.2H128.9z"/>
</g>
</svg>
