<?xml version="1.0" encoding="utf-8"?>
<!-- Generator: Adobe Illustrator 20.0.0, SVG Export Plug-In . SVG Version: 6.00 Build 0)  -->
<svg version="1.1" id="Layer_1" xmlns="http://www.w3.org/2000/svg" xmlns:xlink="http://www.w3.org/1999/xlink" x="0px" y="0px"
	 viewBox="0 0 60 43" style="enable-background:new 0 0 60 43;" xml:space="preserve">
<style type="text/css">
	.st0{fill:#FFFFFF;}
	.st1{fill:none;stroke:#FFFFFF;stroke-width:2.1514;stroke-miterlimit:10;}
</style>
<g>
	<path class="st0" d="M13.4,31c-0.1-2-0.2-4.5-0.2-6.3h-0.1c-0.5,1.7-1.1,3.5-1.8,5.5l-2.6,7H7.3L5,30.4c-0.7-2-1.3-3.9-1.7-5.6h0
		c0,1.8-0.2,4.2-0.3,6.4l-0.4,6.2H0.8l1-14.5h2.4l2.5,7c0.6,1.8,1.1,3.4,1.5,4.9h0.1c0.4-1.5,0.9-3.1,1.5-4.9l2.6-7h2.4l0.9,14.5
		h-1.8L13.4,31z"/>
	<path class="st0" d="M33.5,35.5c0.6,0.4,1.6,0.8,2.5,0.8c1.4,0,2-0.7,2-1.5c0-0.9-0.5-1.4-1.9-1.9c-1.9-0.7-2.8-1.7-2.8-2.9
		c0-1.7,1.4-3.1,3.6-3.1c1.1,0,2,0.3,2.6,0.6L39,28.8c-0.4-0.3-1.2-0.6-2.1-0.6c-1.1,0-1.7,0.6-1.7,1.4c0,0.9,0.6,1.2,2,1.8
		c1.8,0.7,2.7,1.6,2.7,3.1c0,1.8-1.4,3.1-3.9,3.1c-1.1,0-2.2-0.3-2.9-0.7L33.5,35.5z"/>
	<path class="st0" d="M42,35.5c0.6,0.4,1.6,0.8,2.5,0.8c1.4,0,2-0.7,2-1.5c0-0.9-0.5-1.4-1.9-1.9c-1.9-0.7-2.8-1.7-2.8-2.9
		c0-1.7,1.4-3.1,3.6-3.1c1.1,0,2,0.3,2.6,0.6l-0.5,1.4c-0.4-0.3-1.2-0.6-2.1-0.6c-1.1,0-1.7,0.6-1.7,1.4c0,0.9,0.6,1.2,2,1.8
		c1.8,0.7,2.7,1.6,2.7,3.1c0,1.8-1.4,3.1-3.9,3.1c-1.1,0-2.2-0.3-2.9-0.7L42,35.5z"/>
	<path class="st0" d="M51.5,27l2.3,6.2c0.2,0.7,0.5,1.5,0.7,2.1h0c0.2-0.6,0.4-1.4,0.7-2.2l2.1-6.1h2l-2.8,7.4
		c-1.4,3.6-2.3,5.4-3.6,6.5c-0.9,0.8-1.9,1.1-2.3,1.2L50,40.6c0.5-0.2,1.1-0.5,1.7-0.9c0.5-0.4,1.2-1.1,1.6-2.1
		c0.1-0.2,0.2-0.3,0.2-0.5s0-0.3-0.1-0.5L49.4,27H51.5z"/>
</g>
<line class="st1" x1="19.5" y1="37.5" x2="19.5" y2="6"/>
<line class="st1" x1="24.6" y1="37.5" x2="24.6" y2="6"/>
<line class="st1" x1="29.7" y1="37.4" x2="29.7" y2="6"/>
<circle class="st0" cx="19.6" cy="2.4" r="1.2"/>
<circle class="st0" cx="24.6" cy="2.4" r="1.2"/>
<circle class="st0" cx="29.8" cy="2.4" r="1.2"/>
</svg>
