<?xml version="1.0" encoding="utf-8"?>
<!-- Generator: Adobe Illustrator 20.0.0, SVG Export Plug-In . SVG Version: 6.00 Build 0)  -->
<svg version="1.1" id="Layer_1" xmlns="http://www.w3.org/2000/svg" xmlns:xlink="http://www.w3.org/1999/xlink" x="0px" y="0px"
	 viewBox="0 0 50.2 47.3" style="enable-background:new 0 0 50.2 47.3;" xml:space="preserve">
<style type="text/css">
	.st0{fill:#ED1C24;}
	.st1{fill:#2E3192;}
	.st2{fill:none;}
	.st3{enable-background:new    ;}
	.st4{fill:#F1F2F2;}
</style>
<g>
	<path class="st0" d="M16.8,4.5C12,6.4-2.3,12.9,1.1,21c1.9,4.4,7.6,2,9.1,3.8c1.7,2,1.4,5,0.6,7.5c-0.8,2.5-2.2,4.9-2.1,7.5
		c0.1,2.1,1.1,4.2,2.8,5.5s3.9,1.8,6,1.4c3.6-0.7,6.1-2.8,8.9-5.2c3.1-2.6,10.9-2.6,14.1-4.4c3.9-2.2,0.7-7.2,4.5-9.4
		c3.4-2,5.1-6.3,4.8-10.2s-2.5-7.6-5.2-10.4c-1.8-1.8-3.9-3.4-6.3-4.1C35,2.3,24.9,1.5,16.8,4.5z"/>
</g>
<g>
	<path class="st1" d="M6.1,6.8c-1.3,4.5,3.4,6.8,1.5,10.6c-1.2,2.5-3,4.7-4.1,7.3c-0.8,1.9-1.3,3.9-1.4,5.9c-0.1,1.3,0,2.7,0.6,4
		c1.4,3,5.2,3.9,8.5,3.6c3.3-0.3,6.4-1.6,9.7-1.7c4.3-0.1,8.4,1.7,12.1,3.9c2.2,1.3,4.5,2.7,7.1,2.5c2.8-0.2,5.1-2.5,6.5-5
		s2.3-5.3,2.6-8.1c0.4-2.7,0.3-5.4-0.4-8c-0.8-2.9-2.3-5.5-3.9-8c-2-3.1-4.1-6.1-6.8-8.5S32,1.1,28.4,0.8c-3.2-0.3-5.7,1.5-8.8,2.4
		c-2.4,0.6-2.9-1.6-5.8-1.7C10.3,1.1,6.8,4.3,6.1,6.8z"/>
</g>
<rect x="12.5" y="17.6" class="st2" width="27.9" height="10.3"/>
<g class="st3">
	<path class="st4" d="M14.6,23.1v-2h0.7v0.5c0.3,0.6,0.8,0.9,1.3,0.9c0.3,0,0.5-0.1,0.7-0.2s0.3-0.4,0.3-0.6c0-0.3-0.1-0.4-0.2-0.6
		s-0.4-0.2-0.9-0.3c-0.5-0.1-0.8-0.3-1.1-0.4s-0.4-0.3-0.6-0.5s-0.2-0.5-0.2-0.8c0-0.5,0.2-0.8,0.5-1.1s0.7-0.4,1.1-0.4
		c0.4,0,0.8,0.1,1.2,0.4v-0.4H18v1.6h-0.7v-0.4c-0.3-0.4-0.7-0.6-1.2-0.6c-0.3,0-0.5,0.1-0.7,0.2s-0.2,0.3-0.2,0.5
		c0,0.1,0,0.3,0.1,0.4s0.2,0.2,0.3,0.2s0.4,0.1,0.7,0.2c0.5,0.1,0.8,0.2,1,0.3c0.2,0.1,0.4,0.3,0.6,0.5c0.2,0.3,0.2,0.5,0.2,0.9
		c0,0.5-0.2,0.8-0.5,1.1c-0.3,0.3-0.7,0.5-1.2,0.5c-0.5,0-0.9-0.2-1.3-0.5v0.4H14.6z"/>
	<path class="st4" d="M20.2,22.4v-4.1h-0.7v-0.7h1.4v4.8h0.6v0.7h-2v-0.7H20.2z"/>
	<path class="st4" d="M23.3,22.4v-2.5h-0.6v-0.7h1.3v3.1h0.6v0.7h-1.9v-0.7H23.3z M23.2,18c0-0.1,0-0.2,0.1-0.3s0.2-0.1,0.3-0.1
		c0.1,0,0.2,0,0.3,0.1s0.1,0.2,0.1,0.3s0,0.2-0.1,0.3s-0.2,0.1-0.3,0.1c-0.1,0-0.2,0-0.3-0.1S23.2,18.1,23.2,18z"/>
	<path class="st4" d="M29.5,19.3v1.4h-0.7c0-0.3-0.1-0.5-0.3-0.6c-0.2-0.1-0.4-0.2-0.7-0.2c-0.3,0-0.6,0.1-0.8,0.4
		c-0.2,0.2-0.3,0.5-0.3,0.9c0,0.4,0.1,0.7,0.3,0.9c0.2,0.3,0.5,0.4,0.9,0.4c0.5,0,0.9-0.2,1.1-0.7l0.6,0.3c-0.3,0.8-0.9,1.1-1.8,1.1
		c-0.6,0-1.1-0.2-1.4-0.6s-0.5-0.9-0.5-1.4c0-0.6,0.2-1,0.6-1.4s0.8-0.6,1.3-0.6c0.4,0,0.8,0.1,1.1,0.4v-0.3H29.5z"/>
	<path class="st4" d="M34.9,21.4h-3.2c0,0.3,0.2,0.6,0.4,0.8c0.2,0.2,0.5,0.3,0.9,0.3c0.5,0,0.9-0.2,1.2-0.6l0.7,0.3
		c-0.2,0.3-0.5,0.6-0.8,0.7c-0.3,0.2-0.7,0.2-1.1,0.2c-0.6,0-1.1-0.2-1.5-0.5s-0.6-0.8-0.6-1.5c0-0.6,0.2-1.1,0.6-1.4
		c0.4-0.4,0.9-0.6,1.4-0.6c0.5,0,1,0.2,1.4,0.5C34.6,20.1,34.9,20.6,34.9,21.4z M34.1,20.8c-0.1-0.3-0.2-0.5-0.4-0.7
		c-0.2-0.2-0.5-0.3-0.8-0.3c-0.3,0-0.6,0.1-0.8,0.3s-0.3,0.4-0.4,0.8H34.1z"/>
	<path class="st4" d="M36.3,23.1v-1.3H37v0.1c0,0.2,0.1,0.3,0.3,0.4s0.4,0.2,0.6,0.2c0.2,0,0.4,0,0.6-0.1c0.1-0.1,0.2-0.2,0.2-0.3
		c0-0.1-0.1-0.2-0.2-0.3c-0.1-0.1-0.4-0.1-0.7-0.2c-0.5-0.1-0.9-0.2-1.1-0.4c-0.2-0.2-0.3-0.5-0.3-0.8c0-0.3,0.1-0.6,0.4-0.8
		c0.2-0.2,0.6-0.3,1-0.3c0.4,0,0.7,0.1,0.9,0.2v-0.2h0.7v1.3h-0.7v-0.2c-0.2-0.3-0.5-0.5-0.9-0.5c-0.2,0-0.4,0-0.5,0.1
		C37.1,20,37,20.2,37,20.3c0,0.1,0.1,0.2,0.2,0.3c0.1,0.1,0.4,0.1,0.7,0.2c0.4,0.1,0.6,0.1,0.8,0.2c0.2,0.1,0.3,0.2,0.5,0.4
		c0.1,0.2,0.2,0.4,0.2,0.6c0,0.4-0.1,0.6-0.4,0.8s-0.6,0.3-1,0.3c-0.4,0-0.7-0.1-1-0.3v0.2H36.3z"/>
</g>
</svg>
